<svg id="visual" viewBox="0 0 900 600" width="900" height="600" xmlns="http://www.w3.org/2000/svg" xmlns:xlink="http://www.w3.org/1999/xlink" version="1.1"><rect width="900" height="600" fill="#14171E"></rect><g><g transform="translate(628 572)"><path d="M75.5 -100.2C93.7 -74.7 101.6 -47 107.2 -18.4C112.8 10.2 116.3 39.7 106.3 65.4C96.2 91.1 72.7 113 44.9 122.9C17.1 132.8 -14.9 130.8 -44.6 120.7C-74.2 110.6 -101.6 92.6 -118.3 66.8C-134.9 41 -140.8 7.6 -132.7 -20.8C-124.6 -49.2 -102.5 -72.5 -78.1 -96.9C-53.6 -121.3 -26.8 -146.7 0.9 -147.8C28.6 -148.9 57.3 -125.7 75.5 -100.2Z" stroke="#ffbd59" fill="none" stroke-width="20"></path></g><g transform="translate(87 337)"><path d="M64.1 -79.2C81.2 -62.1 91.7 -40.1 102.7 -12.9C113.6 14.2 125 46.5 114.5 67.5C104 88.5 71.6 98.2 40.1 109.4C8.5 120.6 -22.3 133.2 -46.2 125.2C-70.1 117.3 -87.2 88.7 -103.2 60C-119.3 31.3 -134.4 2.5 -129.1 -22C-123.9 -46.4 -98.3 -66.5 -73.4 -82.2C-48.4 -97.9 -24.2 -109.2 -0.3 -108.8C23.6 -108.4 47.1 -96.3 64.1 -79.2Z" stroke="#ffbd59" fill="none" stroke-width="20"></path></g><g transform="translate(847 119)"><path d="M30.9 -35.9C40.3 -28.9 48.3 -19.4 50.8 -8.5C53.3 2.5 50.3 14.9 43.8 24.4C37.3 34 27.3 40.7 16.3 44.6C5.4 48.4 -6.5 49.4 -17.1 46C-27.7 42.6 -37.1 34.7 -45.4 24.3C-53.7 13.9 -60.8 1 -60.2 -12C-59.5 -24.9 -51.1 -37.8 -39.7 -44.5C-28.4 -51.1 -14.2 -51.4 -1.7 -49.3C10.7 -47.3 21.5 -42.8 30.9 -35.9Z" stroke="#ffbd59" fill="none" stroke-width="20"></path></g><g transform="translate(433 67)"><path d="M30.1 -35.6C38.9 -28.5 46 -18.9 47.8 -8.5C49.6 2 46.1 13.3 40.4 23.5C34.7 33.6 26.7 42.6 16.1 48.1C5.5 53.7 -7.8 55.8 -18.8 51.7C-29.8 47.7 -38.6 37.5 -42.7 26.6C-46.7 15.6 -46 3.8 -45.4 -9.5C-44.8 -22.7 -44.3 -37.4 -36.7 -44.8C-29.2 -52.3 -14.6 -52.4 -2 -50C10.6 -47.7 21.3 -42.8 30.1 -35.6Z" stroke="#ffbd59" fill="none" stroke-width="20"></path></g></g></svg>