<svg id="visual" viewBox="0 0 900 600" width="900" height="600" xmlns="http://www.w3.org/2000/svg" xmlns:xlink="http://www.w3.org/1999/xlink" version="1.1"><rect x="0" y="0" width="900" height="600" fill="#14171E"></rect><defs><linearGradient id="grad1_0" x1="33.3%" y1="0%" x2="100%" y2="100%"><stop offset="20%" stop-color="#ffbd59" stop-opacity="1"></stop><stop offset="80%" stop-color="#ffbd59" stop-opacity="1"></stop></linearGradient></defs><defs><linearGradient id="grad1_1" x1="33.3%" y1="0%" x2="100%" y2="100%"><stop offset="20%" stop-color="#ffbd59" stop-opacity="1"></stop><stop offset="80%" stop-color="#f49561" stop-opacity="1"></stop></linearGradient></defs><defs><linearGradient id="grad1_2" x1="33.3%" y1="0%" x2="100%" y2="100%"><stop offset="20%" stop-color="#d8746a" stop-opacity="1"></stop><stop offset="80%" stop-color="#f49561" stop-opacity="1"></stop></linearGradient></defs><defs><linearGradient id="grad1_3" x1="33.3%" y1="0%" x2="100%" y2="100%"><stop offset="20%" stop-color="#d8746a" stop-opacity="1"></stop><stop offset="80%" stop-color="#b05c6e" stop-opacity="1"></stop></linearGradient></defs><defs><linearGradient id="grad1_4" x1="33.3%" y1="0%" x2="100%" y2="100%"><stop offset="20%" stop-color="#824a69" stop-opacity="1"></stop><stop offset="80%" stop-color="#b05c6e" stop-opacity="1"></stop></linearGradient></defs><defs><linearGradient id="grad1_5" x1="33.3%" y1="0%" x2="100%" y2="100%"><stop offset="20%" stop-color="#824a69" stop-opacity="1"></stop><stop offset="80%" stop-color="#543b57" stop-opacity="1"></stop></linearGradient></defs><defs><linearGradient id="grad1_6" x1="33.3%" y1="0%" x2="100%" y2="100%"><stop offset="20%" stop-color="#2e2a3d" stop-opacity="1"></stop><stop offset="80%" stop-color="#543b57" stop-opacity="1"></stop></linearGradient></defs><defs><linearGradient id="grad1_7" x1="33.3%" y1="0%" x2="100%" y2="100%"><stop offset="20%" stop-color="#2e2a3d" stop-opacity="1"></stop><stop offset="80%" stop-color="#14171e" stop-opacity="1"></stop></linearGradient></defs><defs><linearGradient id="grad2_0" x1="0%" y1="0%" x2="66.7%" y2="100%"><stop offset="20%" stop-color="#ffbd59" stop-opacity="1"></stop><stop offset="80%" stop-color="#ffbd59" stop-opacity="1"></stop></linearGradient></defs><defs><linearGradient id="grad2_1" x1="0%" y1="0%" x2="66.7%" y2="100%"><stop offset="20%" stop-color="#f49561" stop-opacity="1"></stop><stop offset="80%" stop-color="#ffbd59" stop-opacity="1"></stop></linearGradient></defs><defs><linearGradient id="grad2_2" x1="0%" y1="0%" x2="66.7%" y2="100%"><stop offset="20%" stop-color="#f49561" stop-opacity="1"></stop><stop offset="80%" stop-color="#d8746a" stop-opacity="1"></stop></linearGradient></defs><defs><linearGradient id="grad2_3" x1="0%" y1="0%" x2="66.7%" y2="100%"><stop offset="20%" stop-color="#b05c6e" stop-opacity="1"></stop><stop offset="80%" stop-color="#d8746a" stop-opacity="1"></stop></linearGradient></defs><defs><linearGradient id="grad2_4" x1="0%" y1="0%" x2="66.7%" y2="100%"><stop offset="20%" stop-color="#b05c6e" stop-opacity="1"></stop><stop offset="80%" stop-color="#824a69" stop-opacity="1"></stop></linearGradient></defs><defs><linearGradient id="grad2_5" x1="0%" y1="0%" x2="66.7%" y2="100%"><stop offset="20%" stop-color="#543b57" stop-opacity="1"></stop><stop offset="80%" stop-color="#824a69" stop-opacity="1"></stop></linearGradient></defs><defs><linearGradient id="grad2_6" x1="0%" y1="0%" x2="66.7%" y2="100%"><stop offset="20%" stop-color="#543b57" stop-opacity="1"></stop><stop offset="80%" stop-color="#2e2a3d" stop-opacity="1"></stop></linearGradient></defs><defs><linearGradient id="grad2_7" x1="0%" y1="0%" x2="66.7%" y2="100%"><stop offset="20%" stop-color="#14171e" stop-opacity="1"></stop><stop offset="80%" stop-color="#2e2a3d" stop-opacity="1"></stop></linearGradient></defs><g transform="translate(900, 0)"><path d="M0 378.6C-13 362.1 -26 345.7 -42.3 348.4C-58.6 351.2 -78.2 373.2 -90.6 367.6C-103 361.9 -108.2 328.7 -120.6 317.9C-132.9 307.1 -152.5 318.9 -166.8 317.9C-181.2 316.9 -190.3 303.1 -204.5 296.3C-218.7 289.4 -237.9 289.5 -246 277.7C-254.1 265.9 -251 242.1 -257.5 228.1C-264 214.1 -280.1 209.8 -289.7 200C-299.3 190.1 -302.4 174.7 -308.1 161.7C-313.9 148.8 -322.2 138.2 -335.7 127.3C-349.2 116.4 -367.9 105.1 -366 90.2C-364.2 75.4 -341.8 57 -340.5 41.3C-339.2 25.7 -358.9 12.9 -378.6 0L0 0Z" fill="#1f212e"></path><path d="M0 331.3C-11.4 316.9 -22.8 302.5 -37 304.9C-51.3 307.3 -68.4 326.6 -79.3 321.6C-90.1 316.7 -94.7 287.6 -105.5 278.2C-116.3 268.7 -133.4 279 -146 278.1C-158.5 277.3 -166.5 265.2 -178.9 259.2C-191.4 253.3 -208.2 253.3 -215.3 243C-222.3 232.6 -219.6 211.9 -225.3 199.6C-231 187.3 -245.1 183.6 -253.5 175C-261.9 166.3 -264.6 152.9 -269.6 141.5C-274.6 130.2 -281.9 120.9 -293.7 111.4C-305.5 101.8 -321.9 91.9 -320.3 78.9C-318.7 65.9 -299.1 49.9 -297.9 36.2C-296.8 22.5 -314 11.3 -331.3 0L0 0Z" fill="#3f334b"></path><path d="M0 283.9C-9.8 271.6 -19.5 259.3 -31.7 261.3C-44 263.4 -58.7 279.9 -68 275.7C-77.2 271.5 -81.1 246.5 -90.4 238.4C-99.7 230.4 -114.4 239.2 -125.1 238.4C-135.9 237.7 -142.7 227.3 -153.4 222.2C-164 217.1 -178.5 217.1 -184.5 208.3C-190.6 199.4 -188.2 181.6 -193.1 171.1C-198 160.6 -210.1 157.4 -217.3 150C-224.5 142.6 -226.8 131 -231.1 121.3C-235.4 111.6 -241.6 103.7 -251.8 95.5C-261.9 87.3 -275.9 78.8 -274.5 67.7C-273.2 56.5 -256.4 42.7 -255.4 31C-254.4 19.3 -269.2 9.6 -283.9 0L0 0Z" fill="#6b4361"></path><path d="M0 236.6C-8.1 226.3 -16.3 216 -26.4 217.8C-36.6 219.5 -48.9 233.3 -56.6 229.7C-64.4 226.2 -67.6 205.4 -75.4 198.7C-83.1 192 -95.3 199.3 -104.3 198.7C-113.2 198 -118.9 189.4 -127.8 185.2C-136.7 180.9 -148.7 181 -153.8 173.6C-158.8 166.2 -156.9 151.3 -160.9 142.6C-165 133.8 -175.1 131.1 -181.1 125C-187.1 118.8 -189 109.2 -192.6 101.1C-196.2 93 -201.4 86.4 -209.8 79.6C-218.2 72.7 -229.9 65.7 -228.8 56.4C-227.6 47.1 -213.6 35.6 -212.8 25.8C-212 16.1 -224.3 8 -236.6 0L0 0Z" fill="#9a536d"></path><path d="M0 189.3C-6.5 181.1 -13 172.8 -21.2 174.2C-29.3 175.6 -39.1 186.6 -45.3 183.8C-51.5 181 -54.1 164.3 -60.3 159C-66.5 153.6 -76.2 159.4 -83.4 158.9C-90.6 158.4 -95.2 151.6 -102.3 148.1C-109.3 144.7 -119 144.8 -123 138.8C-127 132.9 -125.5 121.1 -128.7 114.1C-132 107 -140 104.9 -144.8 100C-149.6 95.1 -151.2 87.3 -154.1 80.9C-156.9 74.4 -161.1 69.1 -167.8 63.7C-174.6 58.2 -183.9 52.5 -183 45.1C-182.1 37.7 -170.9 28.5 -170.2 20.7C-169.6 12.9 -179.4 6.4 -189.3 0L0 0Z" fill="#c5676d"></path><path d="M0 142C-4.9 135.8 -9.8 129.6 -15.9 130.7C-22 131.7 -29.3 140 -34 137.8C-38.6 135.7 -40.6 123.3 -45.2 119.2C-49.9 115.2 -57.2 119.6 -62.6 119.2C-67.9 118.8 -71.4 113.7 -76.7 111.1C-82 108.5 -89.2 108.6 -92.3 104.1C-95.3 99.7 -94.1 90.8 -96.6 85.5C-99 80.3 -105 78.7 -108.6 75C-112.2 71.3 -113.4 65.5 -115.6 60.6C-117.7 55.8 -120.8 51.8 -125.9 47.7C-130.9 43.6 -138 39.4 -137.3 33.8C-136.6 28.3 -128.2 21.4 -127.7 15.5C-127.2 9.6 -134.6 4.8 -142 0L0 0Z" fill="#e88366"></path><path d="M0 94.6C-3.3 90.5 -6.5 86.4 -10.6 87.1C-14.7 87.8 -19.6 93.3 -22.7 91.9C-25.7 90.5 -27 82.2 -30.1 79.5C-33.2 76.8 -38.1 79.7 -41.7 79.5C-45.3 79.2 -47.6 75.8 -51.1 74.1C-54.7 72.4 -59.5 72.4 -61.5 69.4C-63.5 66.5 -62.7 60.5 -64.4 57C-66 53.5 -70 52.5 -72.4 50C-74.8 47.5 -75.6 43.7 -77 40.4C-78.5 37.2 -80.5 34.6 -83.9 31.8C-87.3 29.1 -92 26.3 -91.5 22.6C-91.1 18.8 -85.5 14.2 -85.1 10.3C-84.8 6.4 -89.7 3.2 -94.6 0L0 0Z" fill="#fba85c"></path><path d="M0 47.3C-1.6 45.3 -3.3 43.2 -5.3 43.6C-7.3 43.9 -9.8 46.7 -11.3 45.9C-12.9 45.2 -13.5 41.1 -15.1 39.7C-16.6 38.4 -19.1 39.9 -20.9 39.7C-22.6 39.6 -23.8 37.9 -25.6 37C-27.3 36.2 -29.7 36.2 -30.8 34.7C-31.8 33.2 -31.4 30.3 -32.2 28.5C-33 26.8 -35 26.2 -36.2 25C-37.4 23.8 -37.8 21.8 -38.5 20.2C-39.2 18.6 -40.3 17.3 -42 15.9C-43.6 14.5 -46 13.1 -45.8 11.3C-45.5 9.4 -42.7 7.1 -42.6 5.2C-42.4 3.2 -44.9 1.6 -47.3 0L0 0Z" fill="#ffbd59"></path></g><g transform="translate(0, 600)"><path d="M0 -378.6C15.5 -376.9 30.9 -375.2 44.6 -367.3C58.2 -359.4 70.1 -345.4 84 -340.8C97.9 -336.2 113.9 -340.9 128.7 -339.4C143.5 -337.9 157 -330.3 168.2 -320.5C179.4 -310.8 188.4 -299 202.8 -293.8C217.2 -288.6 237.2 -289.9 250 -282.2C262.8 -274.5 268.4 -257.8 273.2 -242C278 -226.3 282 -211.6 288 -198.8C294.1 -186 302.1 -175.2 315.2 -165.4C328.3 -155.7 346.5 -147.2 354 -134.2C361.5 -121.3 358.3 -104.1 359.2 -88.5C360.2 -73 365.4 -59.3 369.3 -44.8C373.2 -30.4 375.9 -15.2 378.6 0L0 0Z" fill="#1f212e"></path><path d="M0 -331.3C13.5 -329.8 27.1 -328.3 39 -321.4C51 -314.5 61.3 -302.3 73.5 -298.2C85.7 -294.1 99.7 -298.3 112.6 -297C125.6 -295.7 137.4 -289 147.2 -280.5C157 -272 164.8 -261.7 177.4 -257.1C190.1 -252.5 207.6 -253.7 218.7 -246.9C229.9 -240.2 234.8 -225.5 239.1 -211.8C243.3 -198 246.8 -185.2 252 -174C257.3 -162.8 264.4 -153.3 275.8 -144.8C287.3 -136.3 303.2 -128.8 309.7 -117.5C316.3 -106.2 313.5 -91 314.3 -77.5C315.2 -63.9 319.7 -51.9 323.1 -39.2C326.6 -26.6 328.9 -13.3 331.3 0L0 0Z" fill="#3f334b"></path><path d="M0 -283.9C11.6 -282.7 23.2 -281.4 33.4 -275.5C43.7 -269.6 52.6 -259.1 63 -255.6C73.4 -252.1 85.5 -255.7 96.5 -254.6C107.6 -253.5 117.8 -247.7 126.2 -240.4C134.6 -233.1 141.3 -224.3 152.1 -220.4C162.9 -216.4 177.9 -217.4 187.5 -211.6C197.1 -205.9 201.3 -193.3 204.9 -181.5C208.5 -169.7 211.5 -158.7 216 -149.1C220.6 -139.5 226.6 -131.4 236.4 -124.1C246.2 -116.8 259.9 -110.4 265.5 -100.7C271.1 -91 268.7 -78 269.4 -66.4C270.2 -54.8 274 -44.5 277 -33.6C279.9 -22.8 281.9 -11.4 283.9 0L0 0Z" fill="#6b4361"></path><path d="M0 -236.6C9.7 -235.5 19.3 -234.5 27.9 -229.6C36.4 -224.7 43.8 -215.9 52.5 -213C61.2 -210.1 71.2 -213.1 80.5 -212.1C89.7 -211.2 98.1 -206.4 105.1 -200.3C112.2 -194.3 117.7 -186.9 126.7 -183.6C135.8 -180.4 148.3 -181.2 156.2 -176.4C164.2 -171.6 167.7 -161.1 170.8 -151.3C173.8 -141.5 176.3 -132.3 180 -124.3C183.8 -116.3 188.8 -109.5 197 -103.4C205.2 -97.3 216.6 -92 221.2 -83.9C225.9 -75.8 223.9 -65 224.5 -55.3C225.1 -45.7 228.4 -37.1 230.8 -28C233.3 -19 234.9 -9.5 236.6 0L0 0Z" fill="#9a536d"></path><path d="M0 -189.3C7.7 -188.4 15.5 -187.6 22.3 -183.7C29.1 -179.7 35 -172.7 42 -170.4C49 -168.1 57 -170.4 64.4 -169.7C71.7 -169 78.5 -165.1 84.1 -160.3C89.7 -155.4 94.2 -149.5 101.4 -146.9C108.6 -144.3 118.6 -144.9 125 -141.1C131.4 -137.2 134.2 -128.9 136.6 -121C139 -113.2 141 -105.8 144 -99.4C147 -93 151.1 -87.6 157.6 -82.7C164.2 -77.9 173.2 -73.6 177 -67.1C180.7 -60.7 179.1 -52 179.6 -44.3C180.1 -36.5 182.7 -29.7 184.6 -22.4C186.6 -15.2 187.9 -7.6 189.3 0L0 0Z" fill="#c5676d"></path><path d="M0 -142C5.8 -141.3 11.6 -140.7 16.7 -137.7C21.8 -134.8 26.3 -129.5 31.5 -127.8C36.7 -126.1 42.7 -127.8 48.3 -127.3C53.8 -126.7 58.9 -123.8 63.1 -120.2C67.3 -116.6 70.6 -112.1 76 -110.2C81.5 -108.2 89 -108.7 93.7 -105.8C98.5 -102.9 100.6 -96.7 102.5 -90.8C104.3 -84.9 105.8 -79.4 108 -74.6C110.3 -69.8 113.3 -65.7 118.2 -62C123.1 -58.4 129.9 -55.2 132.7 -50.3C135.6 -45.5 134.4 -39 134.7 -33.2C135.1 -27.4 137 -22.2 138.5 -16.8C140 -11.4 141 -5.7 142 0L0 0Z" fill="#e88366"></path><path d="M0 -94.6C3.9 -94.2 7.7 -93.8 11.1 -91.8C14.6 -89.9 17.5 -86.4 21 -85.2C24.5 -84 28.5 -85.2 32.2 -84.9C35.9 -84.5 39.3 -82.6 42.1 -80.1C44.9 -77.7 47.1 -74.8 50.7 -73.5C54.3 -72.1 59.3 -72.5 62.5 -70.5C65.7 -68.6 67.1 -64.4 68.3 -60.5C69.5 -56.6 70.5 -52.9 72 -49.7C73.5 -46.5 75.5 -43.8 78.8 -41.4C82.1 -38.9 86.6 -36.8 88.5 -33.6C90.4 -30.3 89.6 -26 89.8 -22.1C90.1 -18.3 91.3 -14.8 92.3 -11.2C93.3 -7.6 94 -3.8 94.6 0L0 0Z" fill="#fba85c"></path><path d="M0 -47.3C1.9 -47.1 3.9 -46.9 5.6 -45.9C7.3 -44.9 8.8 -43.2 10.5 -42.6C12.2 -42 14.2 -42.6 16.1 -42.4C17.9 -42.2 19.6 -41.3 21 -40.1C22.4 -38.9 23.5 -37.4 25.3 -36.7C27.2 -36.1 29.7 -36.2 31.2 -35.3C32.8 -34.3 33.5 -32.2 34.2 -30.3C34.8 -28.3 35.3 -26.5 36 -24.9C36.8 -23.3 37.8 -21.9 39.4 -20.7C41 -19.5 43.3 -18.4 44.2 -16.8C45.2 -15.2 44.8 -13 44.9 -11.1C45 -9.1 45.7 -7.4 46.2 -5.6C46.7 -3.8 47 -1.9 47.3 0L0 0Z" fill="#ffbd59"></path></g></svg>