<svg id="visual" viewBox="0 0 900 600" width="900" height="600" xmlns="http://www.w3.org/2000/svg" xmlns:xlink="http://www.w3.org/1999/xlink" version="1.1"><rect x="0" y="0" width="900" height="600" fill="#14171E"></rect><path d="M0 375L21.5 368.8C43 362.7 86 350.3 128.8 352.2C171.7 354 214.3 370 257.2 367C300 364 343 342 385.8 329.5C428.7 317 471.3 314 514.2 322.3C557 330.7 600 350.3 642.8 360.3C685.7 370.3 728.3 370.7 771.2 373.8C814 377 857 383 878.5 386L900 389L900 601L878.5 601C857 601 814 601 771.2 601C728.3 601 685.7 601 642.8 601C600 601 557 601 514.2 601C471.3 601 428.7 601 385.8 601C343 601 300 601 257.2 601C214.3 601 171.7 601 128.8 601C86 601 43 601 21.5 601L0 601Z" fill="#ffbd59"></path><path d="M0 308L21.5 307.8C43 307.7 86 307.3 128.8 323.7C171.7 340 214.3 373 257.2 374.8C300 376.7 343 347.3 385.8 345.5C428.7 343.7 471.3 369.3 514.2 367.7C557 366 600 337 642.8 324.7C685.7 312.3 728.3 316.7 771.2 327.8C814 339 857 357 878.5 366L900 375L900 601L878.5 601C857 601 814 601 771.2 601C728.3 601 685.7 601 642.8 601C600 601 557 601 514.2 601C471.3 601 428.7 601 385.8 601C343 601 300 601 257.2 601C214.3 601 171.7 601 128.8 601C86 601 43 601 21.5 601L0 601Z" fill="#f49561"></path><path d="M0 357L21.5 356C43 355 86 353 128.8 350C171.7 347 214.3 343 257.2 358.7C300 374.3 343 409.7 385.8 411.2C428.7 412.7 471.3 380.3 514.2 374.7C557 369 600 390 642.8 387.7C685.7 385.3 728.3 359.7 771.2 362.5C814 365.3 857 396.7 878.5 412.3L900 428L900 601L878.5 601C857 601 814 601 771.2 601C728.3 601 685.7 601 642.8 601C600 601 557 601 514.2 601C471.3 601 428.7 601 385.8 601C343 601 300 601 257.2 601C214.3 601 171.7 601 128.8 601C86 601 43 601 21.5 601L0 601Z" fill="#d8746b"></path><path d="M0 453L21.5 449.3C43 445.7 86 438.3 128.8 432.5C171.7 426.7 214.3 422.3 257.2 427.7C300 433 343 448 385.8 454.8C428.7 461.7 471.3 460.3 514.2 447.2C557 434 600 409 642.8 407.3C685.7 405.7 728.3 427.3 771.2 429.7C814 432 857 415 878.5 406.5L900 398L900 601L878.5 601C857 601 814 601 771.2 601C728.3 601 685.7 601 642.8 601C600 601 557 601 514.2 601C471.3 601 428.7 601 385.8 601C343 601 300 601 257.2 601C214.3 601 171.7 601 128.8 601C86 601 43 601 21.5 601L0 601Z" fill="#b15c6f"></path><path d="M0 459L21.5 460.5C43 462 86 465 128.8 459.7C171.7 454.3 214.3 440.7 257.2 435C300 429.3 343 431.7 385.8 440.7C428.7 449.7 471.3 465.3 514.2 470.5C557 475.7 600 470.3 642.8 467C685.7 463.7 728.3 462.3 771.2 453.7C814 445 857 429 878.5 421L900 413L900 601L878.5 601C857 601 814 601 771.2 601C728.3 601 685.7 601 642.8 601C600 601 557 601 514.2 601C471.3 601 428.7 601 385.8 601C343 601 300 601 257.2 601C214.3 601 171.7 601 128.8 601C86 601 43 601 21.5 601L0 601Z" fill="#824b69"></path><path d="M0 482L21.5 483.7C43 485.3 86 488.7 128.8 493C171.7 497.3 214.3 502.7 257.2 497.7C300 492.7 343 477.3 385.8 479.2C428.7 481 471.3 500 514.2 502.2C557 504.3 600 489.7 642.8 484.2C685.7 478.7 728.3 482.3 771.2 487.2C814 492 857 498 878.5 501L900 504L900 601L878.5 601C857 601 814 601 771.2 601C728.3 601 685.7 601 642.8 601C600 601 557 601 514.2 601C471.3 601 428.7 601 385.8 601C343 601 300 601 257.2 601C214.3 601 171.7 601 128.8 601C86 601 43 601 21.5 601L0 601Z" fill="#543b58"></path><path d="M0 507L21.5 507.5C43 508 86 509 128.8 510.8C171.7 512.7 214.3 515.3 257.2 517.5C300 519.7 343 521.3 385.8 521.2C428.7 521 471.3 519 514.2 523.2C557 527.3 600 537.7 642.8 534.8C685.7 532 728.3 516 771.2 511.5C814 507 857 514 878.5 517.5L900 521L900 601L878.5 601C857 601 814 601 771.2 601C728.3 601 685.7 601 642.8 601C600 601 557 601 514.2 601C471.3 601 428.7 601 385.8 601C343 601 300 601 257.2 601C214.3 601 171.7 601 128.8 601C86 601 43 601 21.5 601L0 601Z" fill="#2e2a3d"></path><path d="M0 553L21.5 552C43 551 86 549 128.8 549.2C171.7 549.3 214.3 551.7 257.2 555C300 558.3 343 562.7 385.8 563.3C428.7 564 471.3 561 514.2 560.3C557 559.7 600 561.3 642.8 557.7C685.7 554 728.3 545 771.2 541.7C814 538.3 857 540.7 878.5 541.8L900 543L900 601L878.5 601C857 601 814 601 771.2 601C728.3 601 685.7 601 642.8 601C600 601 557 601 514.2 601C471.3 601 428.7 601 385.8 601C343 601 300 601 257.2 601C214.3 601 171.7 601 128.8 601C86 601 43 601 21.5 601L0 601Z" fill="#14171e"></path></svg>