<svg xmlns="http://www.w3.org/2000/svg" version="1.1" xmlns:xlink="http://www.w3.org/1999/xlink" xmlns:svgjs="http://svgjs.com/svgjs" width="1440" height="560" preserveAspectRatio="none" viewBox="0 0 1440 560"><g mask="url(&quot;#SvgjsMask1018&quot;)" fill="none"><rect width="1440" height="560" x="0" y="0" fill="rgba(0, 0, 0, 1)"></rect><path d="M1488 560L0 560 L0 361.69Q49.06 290.75, 120 339.8Q128.81 276.62, 192 285.43Q265.38 238.81, 312 312.18Q366.07 294.25, 384 348.32Q449.82 294.14, 504 359.97Q543.06 279.03, 624 318.09Q698.89 272.99, 744 347.88Q796.68 280.56, 864 333.23Q905.91 255.14, 984 297.06Q1079.6 272.66, 1104 368.26Q1147.28 291.54, 1224 334.82Q1237.18 276, 1296 289.19Q1339.09 260.28, 1368 303.37Q1454.18 269.56, 1488 355.74z" fill="rgba(1, 20, 60, 1)"></path><path d="M1512 560L0 560 L0 396.48Q40.48 316.96, 120 357.43Q191.3 308.73, 240 380.02Q285.34 353.36, 312 398.7Q356.92 323.62, 432 368.54Q475.6 340.14, 504 383.74Q570.25 377.99, 576 444.23Q594.07 342.3, 696 360.36Q762.92 307.28, 816 374.2Q899.56 337.75, 936 421.31Q938.66 351.97, 1008 354.62Q1047.04 321.66, 1080 360.7Q1160.64 321.34, 1200 401.98Q1270.47 352.46, 1320 422.93Q1353.06 335.99, 1440 369.04Q1481.11 338.14, 1512 379.25z" fill="rgba(0, 37, 98, 1)"></path><path d="M1488 560L0 560 L0 461.25Q39.68 380.93, 120 420.6Q207.34 387.94, 240 475.28Q289.33 452.61, 312 501.94Q364.31 434.25, 432 486.56Q477.91 412.47, 552 458.38Q638.43 424.81, 672 511.24Q698.11 465.35, 744 491.45Q749.34 424.78, 816 430.12Q856.59 398.71, 888 439.29Q965.08 396.37, 1008 473.45Q1038.36 431.81, 1080 462.16Q1135.55 445.71, 1152 501.25Q1176.99 454.25, 1224 479.24Q1265.06 448.3, 1296 489.36Q1324.47 397.83, 1416 426.29Q1458.16 396.45, 1488 438.61z" fill="rgba(0, 53, 118, 1)"></path><path d="M1536 560L0 560 L0 536.22Q66.01 482.23, 120 548.24Q133.88 490.12, 192 504Q246.98 438.98, 312 493.95Q400.77 462.72, 432 551.48Q485.49 484.97, 552 538.45Q597.71 464.16, 672 509.88Q756.81 474.69, 792 559.51Q798.02 493.53, 864 499.56Q941.96 457.52, 984 535.49Q1058.72 490.22, 1104 564.94Q1104.68 493.63, 1176 494.31Q1241.42 439.74, 1296 505.16Q1380.05 469.21, 1416 553.25Q1462.43 479.68, 1536 526.12z" fill="rgba(255, 255, 255, 1)"></path></g><defs><mask id="SvgjsMask1018"><rect width="1440" height="560" fill="#ffffff"></rect></mask></defs></svg>