<svg xmlns="http://www.w3.org/2000/svg" version="1.1" xmlns:xlink="http://www.w3.org/1999/xlink" xmlns:svgjs="http://svgjs.com/svgjs" width="1440" height="560" preserveAspectRatio="none" viewBox="0 0 1440 560"><g mask="url(&quot;#SvgjsMask1002&quot;)" fill="none"><rect width="1440" height="560" x="0" y="0" fill="rgba(0, 0, 0, 1)"></rect><path d="M243.25 58.03L265.41 58.03L265.41 66.87L243.25 66.87z" fill="#d3b714"></path><path d="M1080.38 356.28a52.57 52.57 0 1 0-49.24 92.89z" fill="#d3b714"></path><path d="M739.82 125.18L785.27 125.18L785.27 170.63L739.82 170.63z" fill="#e73635"></path><path d="M581.35 79.91 a23.25 23.25 0 1 0 46.5 0 a23.25 23.25 0 1 0 -46.5 0z" stroke="#e73635"></path><path d="M351.99 150.72 a25.99 25.99 0 1 0 51.98 0 a25.99 25.99 0 1 0 -51.98 0z" stroke="#e73635"></path><path d="M71.72 186.92L101.34 186.92L101.34 216.54L71.72 216.54z" fill="#d3b714"></path><path d="M912.68 47.17L958.63 47.17L958.63 87.06L912.68 87.06z" stroke="#037b0b"></path><path d="M992.76 493.09a36.82 36.82 0 1 0 17.96 71.41z" stroke="#d3b714"></path><path d="M577.26 371.77 a22.03 22.03 0 1 0 44.06 0 a22.03 22.03 0 1 0 -44.06 0z" stroke="#037b0b"></path><path d="M152.84 50.39a13.16 13.16 0 1 0-15.24-21.46z" stroke="#d3b714"></path><path d="M315.16 519.82a3.2 3.2 0 1 0-6.34-0.84z" fill="#037b0b"></path><path d="M78.16 449.43L99.56 449.43L99.56 505.43L78.16 505.43z" fill="#037b0b"></path><path d="M605.58 10.23L615.74 10.23L615.74 63.54L605.58 63.54z" fill="#e73635"></path><path d="M576.76 202.37a55.14 55.14 0 1 0-110.28 1.04z" stroke="#d3b714"></path><path d="M865.83 398.08L893.31 398.08L893.31 425.56L865.83 425.56z" fill="#037b0b"></path><path d="M1368.7 336.6 a41.49 41.49 0 1 0 82.98 0 a41.49 41.49 0 1 0 -82.98 0z" fill="#e73635"></path><path d="M1387.32 181.58a7.61 7.61 0 1 0 12.31-8.94z" stroke="#e73635"></path><path d="M257.16 64.04L296.72 64.04L296.72 77.42L257.16 77.42z" stroke="#e73635"></path><path d="M589.71 421.12 a17.54 17.54 0 1 0 35.08 0 a17.54 17.54 0 1 0 -35.08 0z" fill="#d3b714"></path><path d="M1384.15 453.74a39.78 39.78 0 1 0-54.46 58z" fill="#037b0b"></path><path d="M530.67 229.09a49.1 49.1 0 1 0 78.81 58.58z" fill="#d3b714"></path><path d="M763.37 3.24 a21.67 21.67 0 1 0 43.34 0 a21.67 21.67 0 1 0 -43.34 0z" fill="#e73635"></path><path d="M218.61 134.51L235.93 134.51L235.93 151.83L218.61 151.83z" stroke="#037b0b"></path><path d="M371.79 235.36 a26.14 26.14 0 1 0 52.28 0 a26.14 26.14 0 1 0 -52.28 0z" fill="#e73635"></path><path d="M423.39 546.31 a14.38 14.38 0 1 0 28.76 0 a14.38 14.38 0 1 0 -28.76 0z" stroke="#e73635"></path><path d="M67.29 31.71L106.45 31.71L106.45 69.11L67.29 69.11z" stroke="#e73635"></path><path d="M1281.78 192.09a20.8 20.8 0 1 0 15.5 38.61z" fill="#e73635"></path><path d="M1028.83 417.76 a41.14 41.14 0 1 0 82.28 0 a41.14 41.14 0 1 0 -82.28 0z" stroke="#037b0b"></path><path d="M151.91 412.88a55.17 55.17 0 1 0-45.05-100.73z" fill="#d3b714"></path><path d="M620.56 63.24a14.37 14.37 0 1 0-28.08-6.14z" stroke="#d3b714"></path><path d="M875.7 433.17L884.5 433.17L884.5 441.97L875.7 441.97z" fill="#d3b714"></path><path d="M323.35 142.33L332.3 142.33L332.3 180.17L323.35 180.17z" stroke="#e73635"></path><path d="M316.2 160.95L329.93 160.95L329.93 174.68L316.2 174.68z" fill="#037b0b"></path></g><defs><mask id="SvgjsMask1002"><rect width="1440" height="560" fill="#ffffff"></rect></mask></defs></svg>