<svg xmlns="http://www.w3.org/2000/svg" version="1.1" xmlns:xlink="http://www.w3.org/1999/xlink" xmlns:svgjs="http://svgjs.com/svgjs" width="1440" height="560" preserveAspectRatio="none" viewBox="0 0 1440 560"><g mask="url(&quot;#SvgjsMask1002&quot;)" fill="none"><rect width="1440" height="560" x="0" y="0" fill="rgba(0, 0, 0, 1)"></rect><path d="M-51.11 388.31L-51.11 388.31" stroke="#132e65" stroke-width="1.5"></path><path d="M-51.11 388.31L60.52 351.93" stroke="#132e65" stroke-width="1.5"></path><path d="M-51.11 388.31L-79.85 550.15" stroke="#132e65" stroke-width="1.5"></path><path d="M-79.85 550.15L-79.85 550.15" stroke="#132e65" stroke-width="1.5"></path><path d="M-79.85 550.15L-64.58 664.02" stroke="#132e65" stroke-width="1.5"></path><path d="M-79.85 550.15L108.84 551.85" stroke="#132e65" stroke-width="1.5"></path><path d="M-64.58 664.02L-64.58 664.02" stroke="#132e65" stroke-width="1.5"></path><path d="M-64.58 664.02L43.05 709.01" stroke="#132e65" stroke-width="1.5"></path><path d="M-64.58 664.02L108.84 551.85" stroke="#132e65" stroke-width="1.5"></path><path d="M-64.58 664.02L-51.11 388.31" stroke="#132e65" stroke-width="1.5"></path><path d="M-64.58 664.02L219.21 640.69" stroke="#132e65" stroke-width="1.5"></path><path d="M-64.58 664.02L60.52 351.93" stroke="#132e65" stroke-width="1.5"></path><path d="M60.52 351.93L60.52 351.93" stroke="#132e65" stroke-width="1.5"></path><path d="M60.52 351.93L233.95 348.49" stroke="#132e65" stroke-width="1.5"></path><path d="M60.52 351.93L108.84 551.85" stroke="#132e65" stroke-width="1.5"></path><path d="M60.52 351.93L-79.85 550.15" stroke="#132e65" stroke-width="1.5"></path><path d="M60.52 351.93L260.61 528.99" stroke="#132e65" stroke-width="1.5"></path><path d="M60.52 351.93L219.21 640.69" stroke="#132e65" stroke-width="1.5"></path><path d="M108.84 551.85L108.84 551.85" stroke="#132e65" stroke-width="1.5"></path><path d="M108.84 551.85L219.21 640.69" stroke="#132e65" stroke-width="1.5"></path><path d="M108.84 551.85L260.61 528.99" stroke="#132e65" stroke-width="1.5"></path><path d="M43.05 709.01L43.05 709.01" stroke="#132e65" stroke-width="1.5"></path><path d="M43.05 709.01L108.84 551.85" stroke="#132e65" stroke-width="1.5"></path><path d="M43.05 709.01L219.21 640.69" stroke="#132e65" stroke-width="1.5"></path><path d="M43.05 709.01L-79.85 550.15" stroke="#132e65" stroke-width="1.5"></path><path d="M233.95 348.49L233.95 348.49" stroke="#132e65" stroke-width="1.5"></path><path d="M233.95 348.49L405.48 371.1" stroke="#132e65" stroke-width="1.5"></path><path d="M260.61 528.99L260.61 528.99" stroke="#132e65" stroke-width="1.5"></path><path d="M260.61 528.99L371.54 500.7" stroke="#132e65" stroke-width="1.5"></path><path d="M260.61 528.99L219.21 640.69" stroke="#132e65" stroke-width="1.5"></path><path d="M260.61 528.99L233.95 348.49" stroke="#132e65" stroke-width="1.5"></path><path d="M260.61 528.99L405.48 371.1" stroke="#132e65" stroke-width="1.5"></path><path d="M260.61 528.99L404.7 698.45" stroke="#132e65" stroke-width="1.5"></path><path d="M219.21 640.69L219.21 640.69" stroke="#132e65" stroke-width="1.5"></path><path d="M219.21 640.69L404.7 698.45" stroke="#132e65" stroke-width="1.5"></path><path d="M405.48 371.1L405.48 371.1" stroke="#132e65" stroke-width="1.5"></path><path d="M405.48 371.1L371.54 500.7" stroke="#132e65" stroke-width="1.5"></path><path d="M405.48 371.1L545.35 387.03" stroke="#132e65" stroke-width="1.5"></path><path d="M405.48 371.1L677.8 373" stroke="#132e65" stroke-width="1.5"></path><path d="M405.48 371.1L668.45 262.26" stroke="#132e65" stroke-width="1.5"></path><path d="M371.54 500.7L371.54 500.7" stroke="#132e65" stroke-width="1.5"></path><path d="M371.54 500.7L404.7 698.45" stroke="#132e65" stroke-width="1.5"></path><path d="M371.54 500.7L233.95 348.49" stroke="#132e65" stroke-width="1.5"></path><path d="M371.54 500.7L219.21 640.69" stroke="#132e65" stroke-width="1.5"></path><path d="M371.54 500.7L545.35 387.03" stroke="#132e65" stroke-width="1.5"></path><path d="M404.7 698.45L404.7 698.45" stroke="#132e65" stroke-width="1.5"></path><path d="M404.7 698.45L547.88 648.63" stroke="#132e65" stroke-width="1.5"></path><path d="M404.7 698.45L645.43 688.83" stroke="#132e65" stroke-width="1.5"></path><path d="M404.7 698.45L667.85 514.02" stroke="#132e65" stroke-width="1.5"></path><path d="M545.35 387.03L545.35 387.03" stroke="#132e65" stroke-width="1.5"></path><path d="M545.35 387.03L677.8 373" stroke="#132e65" stroke-width="1.5"></path><path d="M547.88 648.63L547.88 648.63" stroke="#132e65" stroke-width="1.5"></path><path d="M547.88 648.63L645.43 688.83" stroke="#132e65" stroke-width="1.5"></path><path d="M547.88 648.63L667.85 514.02" stroke="#132e65" stroke-width="1.5"></path><path d="M547.88 648.63L371.54 500.7" stroke="#132e65" stroke-width="1.5"></path><path d="M547.88 648.63L545.35 387.03" stroke="#132e65" stroke-width="1.5"></path><path d="M668.45 262.26L668.45 262.26" stroke="#132e65" stroke-width="1.5"></path><path d="M668.45 262.26L677.8 373" stroke="#132e65" stroke-width="1.5"></path><path d="M668.45 262.26L834.07 226.44" stroke="#132e65" stroke-width="1.5"></path><path d="M668.45 262.26L545.35 387.03" stroke="#132e65" stroke-width="1.5"></path><path d="M668.45 262.26L843.8 405.58" stroke="#132e65" stroke-width="1.5"></path><path d="M668.45 262.26L667.85 514.02" stroke="#132e65" stroke-width="1.5"></path><path d="M677.8 373L677.8 373" stroke="#132e65" stroke-width="1.5"></path><path d="M677.8 373L667.85 514.02" stroke="#132e65" stroke-width="1.5"></path><path d="M677.8 373L843.8 405.58" stroke="#132e65" stroke-width="1.5"></path><path d="M677.8 373L801.65 490.99" stroke="#132e65" stroke-width="1.5"></path><path d="M667.85 514.02L667.85 514.02" stroke="#132e65" stroke-width="1.5"></path><path d="M667.85 514.02L801.65 490.99" stroke="#132e65" stroke-width="1.5"></path><path d="M667.85 514.02L645.43 688.83" stroke="#132e65" stroke-width="1.5"></path><path d="M645.43 688.83L645.43 688.83" stroke="#132e65" stroke-width="1.5"></path><path d="M645.43 688.83L808.06 678.4" stroke="#132e65" stroke-width="1.5"></path><path d="M645.43 688.83L801.65 490.99" stroke="#132e65" stroke-width="1.5"></path><path d="M645.43 688.83L959.75 684.66" stroke="#132e65" stroke-width="1.5"></path><path d="M834.07 226.44L834.07 226.44" stroke="#132e65" stroke-width="1.5"></path><path d="M834.07 226.44L956.66 238.25" stroke="#132e65" stroke-width="1.5"></path><path d="M834.07 226.44L843.8 405.58" stroke="#132e65" stroke-width="1.5"></path><path d="M843.8 405.58L843.8 405.58" stroke="#132e65" stroke-width="1.5"></path><path d="M843.8 405.58L801.65 490.99" stroke="#132e65" stroke-width="1.5"></path><path d="M843.8 405.58L1007.14 347.95" stroke="#132e65" stroke-width="1.5"></path><path d="M801.65 490.99L801.65 490.99" stroke="#132e65" stroke-width="1.5"></path><path d="M801.65 490.99L977.55 527.25" stroke="#132e65" stroke-width="1.5"></path><path d="M801.65 490.99L808.06 678.4" stroke="#132e65" stroke-width="1.5"></path><path d="M801.65 490.99L959.75 684.66" stroke="#132e65" stroke-width="1.5"></path><path d="M808.06 678.4L808.06 678.4" stroke="#132e65" stroke-width="1.5"></path><path d="M808.06 678.4L959.75 684.66" stroke="#132e65" stroke-width="1.5"></path><path d="M808.06 678.4L667.85 514.02" stroke="#132e65" stroke-width="1.5"></path><path d="M808.06 678.4L977.55 527.25" stroke="#132e65" stroke-width="1.5"></path><path d="M808.06 678.4L547.88 648.63" stroke="#132e65" stroke-width="1.5"></path><path d="M1006.78 -45.42L1006.78 -45.42" stroke="#132e65" stroke-width="1.5"></path><path d="M1006.78 -45.42L1002.78 70.26" stroke="#132e65" stroke-width="1.5"></path><path d="M1006.78 -45.42L1147.03 -53.06" stroke="#132e65" stroke-width="1.5"></path><path d="M1006.78 -45.42L1274.77 -51.52" stroke="#132e65" stroke-width="1.5"></path><path d="M1002.78 70.26L1002.78 70.26" stroke="#132e65" stroke-width="1.5"></path><path d="M1002.78 70.26L956.66 238.25" stroke="#132e65" stroke-width="1.5"></path><path d="M1002.78 70.26L1147.03 -53.06" stroke="#132e65" stroke-width="1.5"></path><path d="M1002.78 70.26L1128.46 259.36" stroke="#132e65" stroke-width="1.5"></path><path d="M956.66 238.25L956.66 238.25" stroke="#132e65" stroke-width="1.5"></path><path d="M956.66 238.25L1007.14 347.95" stroke="#132e65" stroke-width="1.5"></path><path d="M956.66 238.25L1128.46 259.36" stroke="#132e65" stroke-width="1.5"></path><path d="M956.66 238.25L843.8 405.58" stroke="#132e65" stroke-width="1.5"></path><path d="M956.66 238.25L1100.39 411.59" stroke="#132e65" stroke-width="1.5"></path><path d="M1007.14 347.95L1007.14 347.95" stroke="#132e65" stroke-width="1.5"></path><path d="M1007.14 347.95L1100.39 411.59" stroke="#132e65" stroke-width="1.5"></path><path d="M1007.14 347.95L1128.46 259.36" stroke="#132e65" stroke-width="1.5"></path><path d="M1007.14 347.95L977.55 527.25" stroke="#132e65" stroke-width="1.5"></path><path d="M1007.14 347.95L834.07 226.44" stroke="#132e65" stroke-width="1.5"></path><path d="M977.55 527.25L977.55 527.25" stroke="#132e65" stroke-width="1.5"></path><path d="M977.55 527.25L959.75 684.66" stroke="#132e65" stroke-width="1.5"></path><path d="M977.55 527.25L1136.67 522.04" stroke="#132e65" stroke-width="1.5"></path><path d="M977.55 527.25L1100.39 411.59" stroke="#132e65" stroke-width="1.5"></path><path d="M959.75 684.66L959.75 684.66" stroke="#132e65" stroke-width="1.5"></path><path d="M959.75 684.66L1155.41 712.31" stroke="#132e65" stroke-width="1.5"></path><path d="M959.75 684.66L1136.67 522.04" stroke="#132e65" stroke-width="1.5"></path><path d="M1147.03 -53.06L1147.03 -53.06" stroke="#132e65" stroke-width="1.5"></path><path d="M1147.03 -53.06L1274.77 -51.52" stroke="#132e65" stroke-width="1.5"></path><path d="M1147.03 -53.06L1294.74 63.65" stroke="#132e65" stroke-width="1.5"></path><path d="M1128.46 259.36L1128.46 259.36" stroke="#132e65" stroke-width="1.5"></path><path d="M1128.46 259.36L1100.39 411.59" stroke="#132e65" stroke-width="1.5"></path><path d="M1100.39 411.59L1100.39 411.59" stroke="#132e65" stroke-width="1.5"></path><path d="M1100.39 411.59L1136.67 522.04" stroke="#132e65" stroke-width="1.5"></path><path d="M1136.67 522.04L1136.67 522.04" stroke="#132e65" stroke-width="1.5"></path><path d="M1136.67 522.04L1247.21 547.22" stroke="#132e65" stroke-width="1.5"></path><path d="M1155.41 712.31L1155.41 712.31" stroke="#132e65" stroke-width="1.5"></path><path d="M1155.41 712.31L1303.09 676.98" stroke="#132e65" stroke-width="1.5"></path><path d="M1155.41 712.31L1247.21 547.22" stroke="#132e65" stroke-width="1.5"></path><path d="M1155.41 712.31L1136.67 522.04" stroke="#132e65" stroke-width="1.5"></path><path d="M1155.41 712.31L977.55 527.25" stroke="#132e65" stroke-width="1.5"></path><path d="M1274.77 -51.52L1274.77 -51.52" stroke="#132e65" stroke-width="1.5"></path><path d="M1274.77 -51.52L1388.36 -57.81" stroke="#132e65" stroke-width="1.5"></path><path d="M1274.77 -51.52L1294.74 63.65" stroke="#132e65" stroke-width="1.5"></path><path d="M1294.74 63.65L1294.74 63.65" stroke="#132e65" stroke-width="1.5"></path><path d="M1294.74 63.65L1302.07 213.86" stroke="#132e65" stroke-width="1.5"></path><path d="M1294.74 63.65L1388.36 -57.81" stroke="#132e65" stroke-width="1.5"></path><path d="M1302.07 213.86L1302.07 213.86" stroke="#132e65" stroke-width="1.5"></path><path d="M1302.07 213.86L1414.67 239.18" stroke="#132e65" stroke-width="1.5"></path><path d="M1302.07 213.86L1275.11 376.77" stroke="#132e65" stroke-width="1.5"></path><path d="M1302.07 213.86L1128.46 259.36" stroke="#132e65" stroke-width="1.5"></path><path d="M1302.07 213.86L1448.99 411.81" stroke="#132e65" stroke-width="1.5"></path><path d="M1302.07 213.86L1553.77 219.58" stroke="#132e65" stroke-width="1.5"></path><path d="M1275.11 376.77L1275.11 376.77" stroke="#132e65" stroke-width="1.5"></path><path d="M1275.11 376.77L1247.21 547.22" stroke="#132e65" stroke-width="1.5"></path><path d="M1275.11 376.77L1448.99 411.81" stroke="#132e65" stroke-width="1.5"></path><path d="M1275.11 376.77L1100.39 411.59" stroke="#132e65" stroke-width="1.5"></path><path d="M1247.21 547.22L1247.21 547.22" stroke="#132e65" stroke-width="1.5"></path><path d="M1247.21 547.22L1303.09 676.98" stroke="#132e65" stroke-width="1.5"></path><path d="M1303.09 676.98L1303.09 676.98" stroke="#132e65" stroke-width="1.5"></path><path d="M1303.09 676.98L1451.66 692.57" stroke="#132e65" stroke-width="1.5"></path><path d="M1388.36 -57.81L1388.36 -57.81" stroke="#132e65" stroke-width="1.5"></path><path d="M1388.36 -57.81L1538.17 64.39" stroke="#132e65" stroke-width="1.5"></path><path d="M1414.67 239.18L1414.67 239.18" stroke="#132e65" stroke-width="1.5"></path><path d="M1414.67 239.18L1553.77 219.58" stroke="#132e65" stroke-width="1.5"></path><path d="M1414.67 239.18L1448.99 411.81" stroke="#132e65" stroke-width="1.5"></path><path d="M1414.67 239.18L1275.11 376.77" stroke="#132e65" stroke-width="1.5"></path><path d="M1414.67 239.18L1294.74 63.65" stroke="#132e65" stroke-width="1.5"></path><path d="M1414.67 239.18L1538.17 64.39" stroke="#132e65" stroke-width="1.5"></path><path d="M1448.99 411.81L1448.99 411.81" stroke="#132e65" stroke-width="1.5"></path><path d="M1448.99 411.81L1448.67 516.87" stroke="#132e65" stroke-width="1.5"></path><path d="M1448.99 411.81L1594.79 403.49" stroke="#132e65" stroke-width="1.5"></path><path d="M1448.67 516.87L1448.67 516.87" stroke="#132e65" stroke-width="1.5"></path><path d="M1448.67 516.87L1604.66 502.05" stroke="#132e65" stroke-width="1.5"></path><path d="M1448.67 516.87L1565.05 644.82" stroke="#132e65" stroke-width="1.5"></path><path d="M1448.67 516.87L1451.66 692.57" stroke="#132e65" stroke-width="1.5"></path><path d="M1448.67 516.87L1594.79 403.49" stroke="#132e65" stroke-width="1.5"></path><path d="M1451.66 692.57L1451.66 692.57" stroke="#132e65" stroke-width="1.5"></path><path d="M1451.66 692.57L1565.05 644.82" stroke="#132e65" stroke-width="1.5"></path><path d="M1592.66 -91.66L1592.66 -91.66" stroke="#132e65" stroke-width="1.5"></path><path d="M1592.66 -91.66L1538.17 64.39" stroke="#132e65" stroke-width="1.5"></path><path d="M1592.66 -91.66L1388.36 -57.81" stroke="#132e65" stroke-width="1.5"></path><path d="M1592.66 -91.66L1553.77 219.58" stroke="#132e65" stroke-width="1.5"></path><path d="M1592.66 -91.66L1274.77 -51.52" stroke="#132e65" stroke-width="1.5"></path><path d="M1592.66 -91.66L1294.74 63.65" stroke="#132e65" stroke-width="1.5"></path><path d="M1592.66 -91.66L1414.67 239.18" stroke="#132e65" stroke-width="1.5"></path><path d="M1538.17 64.39L1538.17 64.39" stroke="#132e65" stroke-width="1.5"></path><path d="M1538.17 64.39L1553.77 219.58" stroke="#132e65" stroke-width="1.5"></path><path d="M1553.77 219.58L1553.77 219.58" stroke="#132e65" stroke-width="1.5"></path><path d="M1553.77 219.58L1594.79 403.49" stroke="#132e65" stroke-width="1.5"></path><path d="M1553.77 219.58L1448.99 411.81" stroke="#132e65" stroke-width="1.5"></path><path d="M1594.79 403.49L1594.79 403.49" stroke="#132e65" stroke-width="1.5"></path><path d="M1594.79 403.49L1604.66 502.05" stroke="#132e65" stroke-width="1.5"></path><path d="M1604.66 502.05L1604.66 502.05" stroke="#132e65" stroke-width="1.5"></path><path d="M1604.66 502.05L1565.05 644.82" stroke="#132e65" stroke-width="1.5"></path><path d="M1565.05 644.82L1565.05 644.82" stroke="#132e65" stroke-width="1.5"></path><path d="M1565.05 644.82L1594.79 403.49" stroke="#132e65" stroke-width="1.5"></path><circle r="5" cx="-51.11" cy="388.31" fill="#132e65"></circle><circle r="5" cx="-79.85" cy="550.15" fill="#132e65"></circle><circle r="5" cx="-64.58" cy="664.02" fill="#132e65"></circle><circle r="5" cx="60.52" cy="351.93" fill="#132e65"></circle><circle r="5" cx="108.84" cy="551.85" fill="#132e65"></circle><circle r="5" cx="43.05" cy="709.01" fill="#132e65"></circle><circle r="5" cx="233.95" cy="348.49" fill="#132e65"></circle><circle r="5" cx="260.61" cy="528.99" fill="#132e65"></circle><circle r="5" cx="219.21" cy="640.69" fill="#132e65"></circle><circle r="5" cx="405.48" cy="371.1" fill="#132e65"></circle><circle r="5" cx="371.54" cy="500.7" fill="#132e65"></circle><circle r="5" cx="404.7" cy="698.45" fill="#132e65"></circle><circle r="5" cx="545.35" cy="387.03" fill="#132e65"></circle><circle r="5" cx="547.88" cy="648.63" fill="#132e65"></circle><circle r="5" cx="668.45" cy="262.26" fill="#132e65"></circle><circle r="5" cx="677.8" cy="373" fill="#132e65"></circle><circle r="5" cx="667.85" cy="514.02" fill="#132e65"></circle><circle r="5" cx="645.43" cy="688.83" fill="#132e65"></circle><circle r="5" cx="834.07" cy="226.44" fill="#132e65"></circle><circle r="5" cx="843.8" cy="405.58" fill="#132e65"></circle><circle r="5" cx="801.65" cy="490.99" fill="#132e65"></circle><circle r="5" cx="808.06" cy="678.4" fill="#132e65"></circle><circle r="5" cx="1006.78" cy="-45.42" fill="#132e65"></circle><circle r="5" cx="1002.78" cy="70.26" fill="#132e65"></circle><circle r="5" cx="956.66" cy="238.25" fill="#132e65"></circle><circle r="5" cx="1007.14" cy="347.95" fill="#132e65"></circle><circle r="5" cx="977.55" cy="527.25" fill="#132e65"></circle><circle r="5" cx="959.75" cy="684.66" fill="#132e65"></circle><circle r="5" cx="1147.03" cy="-53.06" fill="#132e65"></circle><circle r="5" cx="1128.46" cy="259.36" fill="#132e65"></circle><circle r="5" cx="1100.39" cy="411.59" fill="#132e65"></circle><circle r="5" cx="1136.67" cy="522.04" fill="#132e65"></circle><circle r="5" cx="1155.41" cy="712.31" fill="#132e65"></circle><circle r="5" cx="1274.77" cy="-51.52" fill="#132e65"></circle><circle r="5" cx="1294.74" cy="63.65" fill="#132e65"></circle><circle r="5" cx="1302.07" cy="213.86" fill="#132e65"></circle><circle r="5" cx="1275.11" cy="376.77" fill="#132e65"></circle><circle r="5" cx="1247.21" cy="547.22" fill="#132e65"></circle><circle r="5" cx="1303.09" cy="676.98" fill="#132e65"></circle><circle r="5" cx="1388.36" cy="-57.81" fill="#132e65"></circle><circle r="5" cx="1414.67" cy="239.18" fill="#132e65"></circle><circle r="5" cx="1448.99" cy="411.81" fill="#132e65"></circle><circle r="5" cx="1448.67" cy="516.87" fill="#132e65"></circle><circle r="5" cx="1451.66" cy="692.57" fill="#132e65"></circle><circle r="5" cx="1592.66" cy="-91.66" fill="#132e65"></circle><circle r="5" cx="1538.17" cy="64.39" fill="#132e65"></circle><circle r="5" cx="1553.77" cy="219.58" fill="#132e65"></circle><circle r="5" cx="1594.79" cy="403.49" fill="#132e65"></circle><circle r="5" cx="1604.66" cy="502.05" fill="#132e65"></circle><circle r="5" cx="1565.05" cy="644.82" fill="#132e65"></circle><path d="M-56.64 546.49L-56.64 546.49" stroke="hsl(228.5, 77.2%, 51.5%)" stroke-width="1.5"></path><path d="M-56.64 546.49L-112.12 653.45" stroke="hsl(228.5, 77.2%, 51.5%)" stroke-width="1.5"></path><path d="M-56.64 546.49L81.24 497.15" stroke="hsl(228.5, 77.2%, 51.5%)" stroke-width="1.5"></path><path d="M-56.64 546.49L65.74 695.15" stroke="hsl(228.5, 77.2%, 51.5%)" stroke-width="1.5"></path><path d="M-56.64 546.49L209.25 539.08" stroke="hsl(228.5, 77.2%, 51.5%)" stroke-width="1.5"></path><path d="M-56.64 546.49L217.43 659.22" stroke="hsl(228.5, 77.2%, 51.5%)" stroke-width="1.5"></path><path d="M514.21 667.24L514.21 667.24" stroke="hsl(228.5, 77.2%, 51.5%)" stroke-width="1.5"></path><path d="M514.21 667.24L513.46 530.56" stroke="hsl(228.5, 77.2%, 51.5%)" stroke-width="1.5"></path><path d="M654.39 398.19L654.39 398.19" stroke="hsl(228.5, 77.2%, 51.5%)" stroke-width="1.5"></path><path d="M654.39 398.19L683.09 506.8" stroke="hsl(228.5, 77.2%, 51.5%)" stroke-width="1.5"></path><path d="M654.39 398.19L513.46 530.56" stroke="hsl(228.5, 77.2%, 51.5%)" stroke-width="1.5"></path><path d="M654.39 398.19L405.39 542.79" stroke="hsl(228.5, 77.2%, 51.5%)" stroke-width="1.5"></path><path d="M654.39 398.19L514.21 667.24" stroke="hsl(228.5, 77.2%, 51.5%)" stroke-width="1.5"></path><path d="M704.75 708.41L704.75 708.41" stroke="hsl(228.5, 77.2%, 51.5%)" stroke-width="1.5"></path><path d="M704.75 708.41L852.24 690.59" stroke="hsl(228.5, 77.2%, 51.5%)" stroke-width="1.5"></path><path d="M704.75 708.41L514.21 667.24" stroke="hsl(228.5, 77.2%, 51.5%)" stroke-width="1.5"></path><path d="M947.34 255.86L947.34 255.86" stroke="hsl(228.5, 77.2%, 51.5%)" stroke-width="1.5"></path><path d="M947.34 255.86L1144.57 210.61" stroke="hsl(228.5, 77.2%, 51.5%)" stroke-width="1.5"></path><path d="M947.34 255.86L1148.18 348.81" stroke="hsl(228.5, 77.2%, 51.5%)" stroke-width="1.5"></path><path d="M947.34 255.86L966.39 508.74" stroke="hsl(228.5, 77.2%, 51.5%)" stroke-width="1.5"></path><path d="M947.34 255.86L1270.54 222.36" stroke="hsl(228.5, 77.2%, 51.5%)" stroke-width="1.5"></path><path d="M947.34 255.86L1155.77 506.08" stroke="hsl(228.5, 77.2%, 51.5%)" stroke-width="1.5"></path><path d="M979.97 694.96L979.97 694.96" stroke="hsl(228.5, 77.2%, 51.5%)" stroke-width="1.5"></path><path d="M979.97 694.96L852.24 690.59" stroke="hsl(228.5, 77.2%, 51.5%)" stroke-width="1.5"></path><path d="M979.97 694.96L1158.79 666.81" stroke="hsl(228.5, 77.2%, 51.5%)" stroke-width="1.5"></path><path d="M979.97 694.96L966.39 508.74" stroke="hsl(228.5, 77.2%, 51.5%)" stroke-width="1.5"></path><path d="M979.97 694.96L1155.77 506.08" stroke="hsl(228.5, 77.2%, 51.5%)" stroke-width="1.5"></path><path d="M1148.18 348.81L1148.18 348.81" stroke="hsl(228.5, 77.2%, 51.5%)" stroke-width="1.5"></path><path d="M1148.18 348.81L1278.48 388.46" stroke="hsl(228.5, 77.2%, 51.5%)" stroke-width="1.5"></path><path d="M1278.48 388.46L1278.48 388.46" stroke="hsl(228.5, 77.2%, 51.5%)" stroke-width="1.5"></path><path d="M1278.48 388.46L1424.33 390.48" stroke="hsl(228.5, 77.2%, 51.5%)" stroke-width="1.5"></path><path d="M1278.48 388.46L1248.24 539.4" stroke="hsl(228.5, 77.2%, 51.5%)" stroke-width="1.5"></path><path d="M1440.07 528.33L1440.07 528.33" stroke="hsl(228.5, 77.2%, 51.5%)" stroke-width="1.5"></path><path d="M1440.07 528.33L1424.33 390.48" stroke="hsl(228.5, 77.2%, 51.5%)" stroke-width="1.5"></path><path d="M1440.07 528.33L1579.42 534.42" stroke="hsl(228.5, 77.2%, 51.5%)" stroke-width="1.5"></path><path d="M1440.07 528.33L1446.28 708.2" stroke="hsl(228.5, 77.2%, 51.5%)" stroke-width="1.5"></path><path d="M1440.07 528.33L1248.24 539.4" stroke="hsl(228.5, 77.2%, 51.5%)" stroke-width="1.5"></path><path d="M1440.07 528.33L1558.84 681.49" stroke="hsl(228.5, 77.2%, 51.5%)" stroke-width="1.5"></path><path d="M1446.28 708.2L1446.28 708.2" stroke="hsl(228.5, 77.2%, 51.5%)" stroke-width="1.5"></path><path d="M1446.28 708.2L1558.84 681.49" stroke="hsl(228.5, 77.2%, 51.5%)" stroke-width="1.5"></path><path d="M1446.28 708.2L1245.4 686.44" stroke="hsl(228.5, 77.2%, 51.5%)" stroke-width="1.5"></path><path d="M1446.28 708.2L1579.42 534.42" stroke="hsl(228.5, 77.2%, 51.5%)" stroke-width="1.5"></path><path d="M1565.65 62.18L1565.65 62.18" stroke="hsl(228.5, 77.2%, 51.5%)" stroke-width="1.5"></path><path d="M1565.65 62.18L1453.37 102.6" stroke="hsl(228.5, 77.2%, 51.5%)" stroke-width="1.5"></path><path d="M1565.65 62.18L1584.57 -104.17" stroke="hsl(228.5, 77.2%, 51.5%)" stroke-width="1.5"></path><path d="M1565.65 62.18L1579.8 235.03" stroke="hsl(228.5, 77.2%, 51.5%)" stroke-width="1.5"></path><path d="M1579.42 534.42L1579.42 534.42" stroke="hsl(228.5, 77.2%, 51.5%)" stroke-width="1.5"></path><path d="M1579.42 534.42L1558.84 681.49" stroke="hsl(228.5, 77.2%, 51.5%)" stroke-width="1.5"></path><path d="M-112.12 653.45L-112.12 653.45" stroke="hsl(228.5, 77.2%, 51.5%)" stroke-width="1.5"></path><path d="M-112.12 653.45L65.74 695.15" stroke="hsl(228.5, 77.2%, 51.5%)" stroke-width="1.5"></path><path d="M-112.12 653.45L81.24 497.15" stroke="hsl(228.5, 77.2%, 51.5%)" stroke-width="1.5"></path><path d="M-112.12 653.45L217.43 659.22" stroke="hsl(228.5, 77.2%, 51.5%)" stroke-width="1.5"></path><path d="M-112.12 653.45L209.25 539.08" stroke="hsl(228.5, 77.2%, 51.5%)" stroke-width="1.5"></path><path d="M81.24 497.15L81.24 497.15" stroke="hsl(228.5, 77.2%, 51.5%)" stroke-width="1.5"></path><path d="M81.24 497.15L209.25 539.08" stroke="hsl(228.5, 77.2%, 51.5%)" stroke-width="1.5"></path><path d="M81.24 497.15L65.74 695.15" stroke="hsl(228.5, 77.2%, 51.5%)" stroke-width="1.5"></path><path d="M81.24 497.15L217.43 659.22" stroke="hsl(228.5, 77.2%, 51.5%)" stroke-width="1.5"></path><path d="M65.74 695.15L65.74 695.15" stroke="hsl(228.5, 77.2%, 51.5%)" stroke-width="1.5"></path><path d="M65.74 695.15L217.43 659.22" stroke="hsl(228.5, 77.2%, 51.5%)" stroke-width="1.5"></path><path d="M209.25 539.08L209.25 539.08" stroke="hsl(228.5, 77.2%, 51.5%)" stroke-width="1.5"></path><path d="M209.25 539.08L217.43 659.22" stroke="hsl(228.5, 77.2%, 51.5%)" stroke-width="1.5"></path><path d="M209.25 539.08L405.39 542.79" stroke="hsl(228.5, 77.2%, 51.5%)" stroke-width="1.5"></path><path d="M209.25 539.08L65.74 695.15" stroke="hsl(228.5, 77.2%, 51.5%)" stroke-width="1.5"></path><path d="M217.43 659.22L217.43 659.22" stroke="hsl(228.5, 77.2%, 51.5%)" stroke-width="1.5"></path><path d="M217.43 659.22L405.39 542.79" stroke="hsl(228.5, 77.2%, 51.5%)" stroke-width="1.5"></path><path d="M405.39 542.79L405.39 542.79" stroke="hsl(228.5, 77.2%, 51.5%)" stroke-width="1.5"></path><path d="M405.39 542.79L513.46 530.56" stroke="hsl(228.5, 77.2%, 51.5%)" stroke-width="1.5"></path><path d="M405.39 542.79L514.21 667.24" stroke="hsl(228.5, 77.2%, 51.5%)" stroke-width="1.5"></path><path d="M513.46 530.56L513.46 530.56" stroke="hsl(228.5, 77.2%, 51.5%)" stroke-width="1.5"></path><path d="M513.46 530.56L683.09 506.8" stroke="hsl(228.5, 77.2%, 51.5%)" stroke-width="1.5"></path><path d="M683.09 506.8L683.09 506.8" stroke="hsl(228.5, 77.2%, 51.5%)" stroke-width="1.5"></path><path d="M852.24 690.59L852.24 690.59" stroke="hsl(228.5, 77.2%, 51.5%)" stroke-width="1.5"></path><path d="M852.24 690.59L966.39 508.74" stroke="hsl(228.5, 77.2%, 51.5%)" stroke-width="1.5"></path><path d="M852.24 690.59L683.09 506.8" stroke="hsl(228.5, 77.2%, 51.5%)" stroke-width="1.5"></path><path d="M852.24 690.59L1158.79 666.81" stroke="hsl(228.5, 77.2%, 51.5%)" stroke-width="1.5"></path><path d="M966.39 508.74L966.39 508.74" stroke="hsl(228.5, 77.2%, 51.5%)" stroke-width="1.5"></path><path d="M966.39 508.74L1155.77 506.08" stroke="hsl(228.5, 77.2%, 51.5%)" stroke-width="1.5"></path><path d="M1160.95 -77.63L1160.95 -77.63" stroke="hsl(228.5, 77.2%, 51.5%)" stroke-width="1.5"></path><path d="M1160.95 -77.63L1299.66 -94.7" stroke="hsl(228.5, 77.2%, 51.5%)" stroke-width="1.5"></path><path d="M1160.95 -77.63L1294.56 63.25" stroke="hsl(228.5, 77.2%, 51.5%)" stroke-width="1.5"></path><path d="M1160.95 -77.63L1401.98 -70.8" stroke="hsl(228.5, 77.2%, 51.5%)" stroke-width="1.5"></path><path d="M1160.95 -77.63L1144.57 210.61" stroke="hsl(228.5, 77.2%, 51.5%)" stroke-width="1.5"></path><path d="M1144.57 210.61L1144.57 210.61" stroke="hsl(228.5, 77.2%, 51.5%)" stroke-width="1.5"></path><path d="M1144.57 210.61L1270.54 222.36" stroke="hsl(228.5, 77.2%, 51.5%)" stroke-width="1.5"></path><path d="M1144.57 210.61L1148.18 348.81" stroke="hsl(228.5, 77.2%, 51.5%)" stroke-width="1.5"></path><path d="M1144.57 210.61L1294.56 63.25" stroke="hsl(228.5, 77.2%, 51.5%)" stroke-width="1.5"></path><path d="M1155.77 506.08L1155.77 506.08" stroke="hsl(228.5, 77.2%, 51.5%)" stroke-width="1.5"></path><path d="M1155.77 506.08L1248.24 539.4" stroke="hsl(228.5, 77.2%, 51.5%)" stroke-width="1.5"></path><path d="M1155.77 506.08L1148.18 348.81" stroke="hsl(228.5, 77.2%, 51.5%)" stroke-width="1.5"></path><path d="M1155.77 506.08L1158.79 666.81" stroke="hsl(228.5, 77.2%, 51.5%)" stroke-width="1.5"></path><path d="M1155.77 506.08L1278.48 388.46" stroke="hsl(228.5, 77.2%, 51.5%)" stroke-width="1.5"></path><path d="M1158.79 666.81L1158.79 666.81" stroke="hsl(228.5, 77.2%, 51.5%)" stroke-width="1.5"></path><path d="M1158.79 666.81L1245.4 686.44" stroke="hsl(228.5, 77.2%, 51.5%)" stroke-width="1.5"></path><path d="M1158.79 666.81L1248.24 539.4" stroke="hsl(228.5, 77.2%, 51.5%)" stroke-width="1.5"></path><path d="M1299.66 -94.7L1299.66 -94.7" stroke="hsl(228.5, 77.2%, 51.5%)" stroke-width="1.5"></path><path d="M1299.66 -94.7L1401.98 -70.8" stroke="hsl(228.5, 77.2%, 51.5%)" stroke-width="1.5"></path><path d="M1299.66 -94.7L1294.56 63.25" stroke="hsl(228.5, 77.2%, 51.5%)" stroke-width="1.5"></path><path d="M1299.66 -94.7L1453.37 102.6" stroke="hsl(228.5, 77.2%, 51.5%)" stroke-width="1.5"></path><path d="M1294.56 63.25L1294.56 63.25" stroke="hsl(228.5, 77.2%, 51.5%)" stroke-width="1.5"></path><path d="M1294.56 63.25L1270.54 222.36" stroke="hsl(228.5, 77.2%, 51.5%)" stroke-width="1.5"></path><path d="M1270.54 222.36L1270.54 222.36" stroke="hsl(228.5, 77.2%, 51.5%)" stroke-width="1.5"></path><path d="M1270.54 222.36L1406.92 233.33" stroke="hsl(228.5, 77.2%, 51.5%)" stroke-width="1.5"></path><path d="M1270.54 222.36L1278.48 388.46" stroke="hsl(228.5, 77.2%, 51.5%)" stroke-width="1.5"></path><path d="M1248.24 539.4L1248.24 539.4" stroke="hsl(228.5, 77.2%, 51.5%)" stroke-width="1.5"></path><path d="M1248.24 539.4L1245.4 686.44" stroke="hsl(228.5, 77.2%, 51.5%)" stroke-width="1.5"></path><path d="M1245.4 686.44L1245.4 686.44" stroke="hsl(228.5, 77.2%, 51.5%)" stroke-width="1.5"></path><path d="M1401.98 -70.8L1401.98 -70.8" stroke="hsl(228.5, 77.2%, 51.5%)" stroke-width="1.5"></path><path d="M1401.98 -70.8L1294.56 63.25" stroke="hsl(228.5, 77.2%, 51.5%)" stroke-width="1.5"></path><path d="M1453.37 102.6L1453.37 102.6" stroke="hsl(228.5, 77.2%, 51.5%)" stroke-width="1.5"></path><path d="M1453.37 102.6L1406.92 233.33" stroke="hsl(228.5, 77.2%, 51.5%)" stroke-width="1.5"></path><path d="M1453.37 102.6L1294.56 63.25" stroke="hsl(228.5, 77.2%, 51.5%)" stroke-width="1.5"></path><path d="M1453.37 102.6L1401.98 -70.8" stroke="hsl(228.5, 77.2%, 51.5%)" stroke-width="1.5"></path><path d="M1406.92 233.33L1406.92 233.33" stroke="hsl(228.5, 77.2%, 51.5%)" stroke-width="1.5"></path><path d="M1406.92 233.33L1424.33 390.48" stroke="hsl(228.5, 77.2%, 51.5%)" stroke-width="1.5"></path><path d="M1406.92 233.33L1579.8 235.03" stroke="hsl(228.5, 77.2%, 51.5%)" stroke-width="1.5"></path><path d="M1406.92 233.33L1278.48 388.46" stroke="hsl(228.5, 77.2%, 51.5%)" stroke-width="1.5"></path><path d="M1406.92 233.33L1294.56 63.25" stroke="hsl(228.5, 77.2%, 51.5%)" stroke-width="1.5"></path><path d="M1424.33 390.48L1424.33 390.48" stroke="hsl(228.5, 77.2%, 51.5%)" stroke-width="1.5"></path><path d="M1584.57 -104.17L1584.57 -104.17" stroke="hsl(228.5, 77.2%, 51.5%)" stroke-width="1.5"></path><path d="M1584.57 -104.17L1401.98 -70.8" stroke="hsl(228.5, 77.2%, 51.5%)" stroke-width="1.5"></path><path d="M1584.57 -104.17L1453.37 102.6" stroke="hsl(228.5, 77.2%, 51.5%)" stroke-width="1.5"></path><path d="M1579.8 235.03L1579.8 235.03" stroke="hsl(228.5, 77.2%, 51.5%)" stroke-width="1.5"></path><path d="M1579.8 235.03L1607.59 373.27" stroke="hsl(228.5, 77.2%, 51.5%)" stroke-width="1.5"></path><path d="M1579.8 235.03L1453.37 102.6" stroke="hsl(228.5, 77.2%, 51.5%)" stroke-width="1.5"></path><path d="M1579.8 235.03L1424.33 390.48" stroke="hsl(228.5, 77.2%, 51.5%)" stroke-width="1.5"></path><path d="M1607.59 373.27L1607.59 373.27" stroke="hsl(228.5, 77.2%, 51.5%)" stroke-width="1.5"></path><path d="M1607.59 373.27L1579.42 534.42" stroke="hsl(228.5, 77.2%, 51.5%)" stroke-width="1.5"></path><path d="M1607.59 373.27L1424.33 390.48" stroke="hsl(228.5, 77.2%, 51.5%)" stroke-width="1.5"></path><path d="M1607.59 373.27L1440.07 528.33" stroke="hsl(228.5, 77.2%, 51.5%)" stroke-width="1.5"></path><path d="M1607.59 373.27L1406.92 233.33" stroke="hsl(228.5, 77.2%, 51.5%)" stroke-width="1.5"></path><path d="M1558.84 681.49L1558.84 681.49" stroke="hsl(228.5, 77.2%, 51.5%)" stroke-width="1.5"></path><circle r="25" cx="-56.64" cy="546.49" fill="url(#SvgjsRadialGradient1003)"></circle><circle r="25" cx="514.21" cy="667.24" fill="url(#SvgjsRadialGradient1003)"></circle><circle r="25" cx="654.39" cy="398.19" fill="url(#SvgjsRadialGradient1003)"></circle><circle r="25" cx="704.75" cy="708.41" fill="url(#SvgjsRadialGradient1003)"></circle><circle r="25" cx="947.34" cy="255.86" fill="url(#SvgjsRadialGradient1003)"></circle><circle r="25" cx="979.97" cy="694.96" fill="url(#SvgjsRadialGradient1003)"></circle><circle r="25" cx="1148.18" cy="348.81" fill="url(#SvgjsRadialGradient1003)"></circle><circle r="25" cx="1278.48" cy="388.46" fill="url(#SvgjsRadialGradient1003)"></circle><circle r="25" cx="1440.07" cy="528.33" fill="url(#SvgjsRadialGradient1003)"></circle><circle r="25" cx="1446.28" cy="708.2" fill="url(#SvgjsRadialGradient1003)"></circle><circle r="25" cx="1565.65" cy="62.18" fill="url(#SvgjsRadialGradient1003)"></circle><circle r="25" cx="1579.42" cy="534.42" fill="url(#SvgjsRadialGradient1003)"></circle><circle r="5" cx="-112.12" cy="653.45" fill="#8b9ad9"></circle><circle r="5" cx="81.24" cy="497.15" fill="#8b9ad9"></circle><circle r="5" cx="65.74" cy="695.15" fill="#8b9ad9"></circle><circle r="5" cx="209.25" cy="539.08" fill="#8b9ad9"></circle><circle r="5" cx="217.43" cy="659.22" fill="#8b9ad9"></circle><circle r="5" cx="405.39" cy="542.79" fill="#8b9ad9"></circle><circle r="5" cx="513.46" cy="530.56" fill="#8b9ad9"></circle><circle r="5" cx="683.09" cy="506.8" fill="#8b9ad9"></circle><circle r="5" cx="852.24" cy="690.59" fill="#8b9ad9"></circle><circle r="5" cx="966.39" cy="508.74" fill="#8b9ad9"></circle><circle r="5" cx="1160.95" cy="-77.63" fill="#8b9ad9"></circle><circle r="5" cx="1144.57" cy="210.61" fill="#8b9ad9"></circle><circle r="5" cx="1155.77" cy="506.08" fill="#8b9ad9"></circle><circle r="5" cx="1158.79" cy="666.81" fill="#8b9ad9"></circle><circle r="5" cx="1299.66" cy="-94.7" fill="#8b9ad9"></circle><circle r="5" cx="1294.56" cy="63.25" fill="#8b9ad9"></circle><circle r="5" cx="1270.54" cy="222.36" fill="#8b9ad9"></circle><circle r="5" cx="1248.24" cy="539.4" fill="#8b9ad9"></circle><circle r="5" cx="1245.4" cy="686.44" fill="#8b9ad9"></circle><circle r="5" cx="1401.98" cy="-70.8" fill="#8b9ad9"></circle><circle r="5" cx="1453.37" cy="102.6" fill="#8b9ad9"></circle><circle r="5" cx="1406.92" cy="233.33" fill="#8b9ad9"></circle><circle r="5" cx="1424.33" cy="390.48" fill="#8b9ad9"></circle><circle r="5" cx="1584.57" cy="-104.17" fill="#8b9ad9"></circle><circle r="5" cx="1579.8" cy="235.03" fill="#8b9ad9"></circle><circle r="5" cx="1607.59" cy="373.27" fill="#8b9ad9"></circle><circle r="5" cx="1558.84" cy="681.49" fill="#8b9ad9"></circle></g><defs><mask id="SvgjsMask1002"><rect width="1440" height="560" fill="#ffffff"></rect></mask><radialGradient id="SvgjsRadialGradient1003"><stop stop-color="#ffffff" offset="0.1"></stop><stop stop-color="#1735b3" offset="0.2"></stop><stop stop-color="rgba(23, 53, 179, 0)" offset="1"></stop></radialGradient></defs></svg>